<?xml version="1.0" encoding="utf-8"?>
<!-- Generator: Adobe Illustrator 24.0.1, SVG Export Plug-In . SVG Version: 6.00 Build 0)  -->
<svg version="1.1" id="Capa_1" xmlns="http://www.w3.org/2000/svg" xmlns:xlink="http://www.w3.org/1999/xlink" x="0px" y="0px"
	 viewBox="0 0 479.4 479.4" enable-background="new 0 0 479.4 479.4" xml:space="preserve">
<linearGradient id="SVGID_1_" gradientUnits="userSpaceOnUse" x1="-166.5183" y1="103.2292" x2="-166.5183" y2="43.2292" gradientTransform="matrix(8 0 0 8 1571.8696 -345.813)">
	<stop  offset="0" style="stop-color:#A6824B"/>
	<stop  offset="1" style="stop-color:#FFF194"/>
</linearGradient>
<path fill="url(#SVGID_1_)" d="M479.4,240c0-132.5-107.5-240-240-240c-8.6,0-17.2,0.5-25.7,1.4c-7.8,0.8-15.6,2.1-23.2,3.7
	c-1.5,0.3-3,0.6-4.4,1c-45,10.2-86,33.2-118.3,66.2c-3,3.1-5.9,6.2-8.8,9.5C-28,181.7-17.6,333.3,82.4,420.4
	c95.7,83.3,239.7,77.8,328.7-12.7c3-3.1,5.9-6.2,8.8-9.5C458.3,354.5,479.5,298.3,479.4,240z M400.4,395.7c-1.3,1.3-2.6,2.6-3.9,3.8
	c-1.5,1.5-3,2.9-4.5,4.4c-1.3,1.2-2.7,2.4-4.1,3.6c-1.6,1.4-3.1,2.8-4.7,4.1c-1.4,1.2-2.8,2.3-4.2,3.4c-1.6,1.3-3.2,2.6-4.8,3.8
	c-1.5,1.1-2.9,2.2-4.4,3.2c-1.7,1.2-3.3,2.4-5,3.5c-1.5,1-3,2-4.6,3c-1.7,1.1-3.4,2.2-5.2,3.2c-1.6,0.9-3.1,1.8-4.7,2.8
	c-1.8,1-3.6,2-5.3,3c-1.6,0.9-3.2,1.7-4.8,2.5c-1.8,0.9-3.7,1.8-5.5,2.7c-1.6,0.8-3.3,1.5-4.9,2.2c-1.9,0.8-3.8,1.6-5.7,2.4
	c-1.7,0.7-3.3,1.3-5,2c-2,0.7-3.9,1.4-5.9,2.1c-1.7,0.6-3.3,1.2-5,1.7c-2,0.6-4,1.2-6,1.8c-1.7,0.5-3.4,1-5,1.4
	c-0.6,0.2-1.3,0.3-1.9,0.5c23.7-23,41.3-51.5,51.1-83c19,5,37.4,12.1,54.8,21.1C400.9,395.2,400.6,395.5,400.4,395.7L400.4,395.7z
	 M176.8,455c-2-0.6-4.1-1.2-6.1-1.8c-1.7-0.5-3.4-1.1-5-1.7c-2-0.7-3.9-1.4-5.9-2.1c-1.7-0.6-3.3-1.3-5-2c-1.9-0.8-3.8-1.6-5.7-2.4
	c-1.6-0.7-3.3-1.5-4.9-2.2c-1.9-0.9-3.7-1.8-5.6-2.7c-1.6-0.8-3.2-1.6-4.8-2.5c-1.8-1-3.6-2-5.4-3c-1.6-0.9-3.1-1.8-4.7-2.7
	c-1.8-1.1-3.5-2.1-5.2-3.3c-1.5-1-3-2-4.5-3c-1.7-1.2-3.4-2.4-5.1-3.6c-1.5-1-2.9-2.1-4.4-3.2c-1.7-1.2-3.3-2.5-4.9-3.8
	c-1.4-1.1-2.8-2.2-4.2-3.4c-1.6-1.3-3.1-2.7-4.7-4.1c-1.4-1.2-2.7-2.4-4.1-3.6c-1.5-1.4-3-2.9-4.5-4.4c-1.3-1.3-2.6-2.5-3.9-3.8
	c-0.2-0.2-0.5-0.5-0.7-0.7c17.4-9,35.8-16.1,54.8-21.1c9.9,31.5,27.4,60,51.1,83c-0.6-0.2-1.3-0.3-2-0.5
	C180.1,456,178.4,455.5,176.8,455L176.8,455z M67,97.2c19.2,10.4,39.6,18.5,60.7,24.2c-10.4,36-15.8,73.2-16.2,110.7H15.6
	C17.4,182.6,35.4,135.2,67,97.2z M78.5,84.3c1.3-1.3,2.6-2.6,3.9-3.8c1.5-1.5,3-2.9,4.5-4.4c1.3-1.2,2.7-2.4,4.1-3.7
	c1.5-1.4,3.1-2.7,4.7-4.1c1.4-1.2,2.8-2.3,4.2-3.4c1.6-1.3,3.2-2.6,4.8-3.8c1.5-1.1,2.9-2.2,4.4-3.2c1.7-1.2,3.3-2.4,5-3.5
	c1.5-1,3-2,4.6-3c1.7-1.1,3.4-2.2,5.2-3.2c1.6-0.9,3.1-1.9,4.7-2.8c1.8-1,3.5-2,5.3-3c1.6-0.9,3.2-1.7,4.8-2.5
	c1.8-0.9,3.7-1.8,5.5-2.7c1.6-0.8,3.3-1.5,4.9-2.2c1.9-0.8,3.8-1.6,5.7-2.4c1.7-0.7,3.3-1.3,5-2c1.9-0.7,3.9-1.4,5.9-2.1
	c1.7-0.6,3.3-1.2,5-1.7c2-0.6,4-1.2,6-1.8c1.7-0.5,3.4-1,5.1-1.4c0.6-0.2,1.3-0.3,1.9-0.5c-23.7,23-41.3,51.5-51.1,83
	c-19-5-37.4-12.1-54.8-21.1C78,84.8,78.3,84.5,78.5,84.3z M302.1,25c2,0.6,4.1,1.2,6.1,1.8c1.7,0.5,3.4,1.1,5,1.7
	c2,0.7,3.9,1.4,5.9,2.1c1.7,0.6,3.3,1.3,5,2c1.9,0.8,3.8,1.6,5.7,2.4c1.6,0.7,3.3,1.5,4.9,2.2c1.9,0.9,3.7,1.8,5.6,2.7
	c1.6,0.8,3.2,1.6,4.8,2.5c1.8,1,3.6,2,5.4,3c1.6,0.9,3.1,1.8,4.7,2.7c1.8,1.1,3.5,2.1,5.2,3.3c1.5,1,3,2,4.5,3
	c1.7,1.2,3.4,2.3,5.1,3.5c1.5,1,2.9,2.1,4.4,3.2c1.6,1.2,3.3,2.5,4.9,3.8c1.4,1.1,2.8,2.2,4.2,3.4c1.6,1.3,3.1,2.7,4.7,4.1
	c1.4,1.2,2.7,2.4,4.1,3.6c1.5,1.4,3,2.9,4.5,4.4c1.3,1.3,2.6,2.5,3.9,3.8c0.2,0.2,0.5,0.5,0.7,0.7c-17.4,9-35.8,16.1-54.8,21.1
	c-9.9-31.5-27.5-60-51.2-83c0.6,0.2,1.3,0.3,2,0.5C298.8,24,300.5,24.5,302.1,25L302.1,25z M367.3,232
	c-0.4-37.5-5.8-74.7-16.2-110.7c21.1-5.6,41.5-13.8,60.7-24.2c31.6,38,49.6,85.5,51.4,134.8H367.3z M231.4,119.8
	c-28-0.4-55.8-3.7-83.1-9.8c18.9-52.8,48.9-88.5,83.1-93.4L231.4,119.8L231.4,119.8z M143.3,125.3c28.9,6.6,58.5,10.1,88.1,10.5V232
	H127.6C128,195.9,133.3,160,143.3,125.3L143.3,125.3z M231.4,248v96.2c-29.7,0.4-59.2,3.9-88.1,10.5c-10-34.7-15.3-70.6-15.8-106.7
	L231.4,248L231.4,248z M231.4,360.3v103.1c-34.2-4.9-64.2-40.6-83.1-93.4C175.6,363.9,203.5,360.6,231.4,360.3z M247.4,360.3
	c28,0.4,55.8,3.7,83.1,9.8c-18.9,52.8-48.9,88.5-83.1,93.4L247.4,360.3L247.4,360.3z M335.6,354.8c-28.9-6.6-58.5-10.1-88.1-10.5
	V248h103.9C350.9,284.1,345.6,320.1,335.6,354.8L335.6,354.8z M247.4,232v-96.2c29.7-0.4,59.2-3.9,88.1-10.5
	c10,34.7,15.3,70.6,15.8,106.7H247.4z M247.4,119.8V16.7c34.2,4.9,64.2,40.6,83.1,93.4C303.3,116.1,275.4,119.4,247.4,119.8z
	 M111.6,248c0.4,37.5,5.8,74.7,16.2,110.7c-21.1,5.6-41.5,13.8-60.7,24.2c-31.6-38-49.6-85.5-51.4-134.8H111.6z M351.2,358.7
	c10.4-36,15.8-73.2,16.2-110.7h95.9c-1.7,49.4-19.8,96.8-51.4,134.8C392.7,372.4,372.3,364.3,351.2,358.7L351.2,358.7z"/>
</svg>
